<svg width="80" height="80" viewBox="0 0 80 80" fill="none" xmlns="http://www.w3.org/2000/svg">
<path fill-rule="evenodd" clip-rule="evenodd" d="M33.95 1.6001C33.95 0.909742 34.5096 0.350098 35.2 0.350098C49.8755 0.350098 61.0086 5.04473 68.4777 12.4101C75.9392 19.768 79.65 29.6998 79.65 40.0001C79.65 50.2592 76.3665 60.0148 69.8255 67.2203C63.2674 74.4446 53.5197 79.0101 40.8 79.0101C30.1455 79.0101 20.0359 75.6453 12.5723 69.0501C5.0878 62.4365 0.349976 52.6477 0.349976 40.0001C0.349976 27.3441 5.0958 18.1775 12.3982 12.1995C19.6641 6.25142 29.3474 3.5501 39.12 3.5501C39.8103 3.5501 40.37 4.10974 40.37 4.8001C40.37 5.49045 39.8103 6.0501 39.12 6.0501C29.7725 6.0501 20.6959 8.63766 13.9818 14.134C7.30415 19.6005 2.84998 28.0339 2.84998 40.0001C2.84998 51.9747 7.31215 61.0659 14.2277 67.1767C21.1641 73.306 30.6544 76.5101 40.8 76.5101C52.8803 76.5101 61.9325 72.1956 67.9744 65.5399C74.0334 58.8654 77.15 49.741 77.15 40.0001C77.15 30.3004 73.6608 21.0322 66.7223 14.1901C59.7914 7.35547 49.3244 2.8501 35.2 2.8501C34.5096 2.8501 33.95 2.29045 33.95 1.6001ZM31.775 26.3396C32.1617 26.1163 32.6382 26.1163 33.025 26.3396L53.425 38.1176C53.8117 38.3409 54.05 38.7535 54.05 39.2001C54.05 39.6467 53.8117 40.0593 53.425 40.2826L33.025 52.0606C32.6382 52.2839 32.1617 52.2839 31.775 52.0606C31.3882 51.8373 31.15 51.4246 31.15 50.978V27.4222C31.15 26.9756 31.3882 26.5629 31.775 26.3396ZM33.65 29.5872V48.813L50.3 39.2001L33.65 29.5872Z" fill="#181818"/>
</svg>
